<svg width="85" height="25" viewBox="0 0 85 25" fill="none" xmlns="http://www.w3.org/2000/svg">
<path d="M2.857 20.768V4.512C2.857 4.04267 2.67567 3.73333 2.313 3.584C1.95033 3.43467 1.49167 3.36 0.937 3.36H0.617V1.28H11.273V3.36H10.921C10.3877 3.36 9.93967 3.43467 9.577 3.584C9.21433 3.73333 9.033 4.04267 9.033 4.512V20.768C9.033 21.2373 9.21433 21.5467 9.577 21.696C9.93967 21.8453 10.3877 21.92 10.921 21.92H11.273V24H0.617V21.92H0.937C1.49167 21.92 1.95033 21.8453 2.313 21.696C2.67567 21.5467 2.857 21.2373 2.857 20.768ZM13.2733 24V21.92H13.5933C13.9773 21.92 14.3079 21.8773 14.5853 21.792C14.8626 21.7067 15.0866 21.568 15.2573 21.376C15.4279 21.1627 15.5133 20.896 15.5133 20.576V4.512C15.5133 4.192 15.4279 3.95733 15.2573 3.808C15.0866 3.63733 14.8626 3.52 14.5853 3.456C14.3079 3.392 13.9773 3.36 13.5933 3.36H13.2733V1.28H23.2573L31.8333 18.976L31.0333 18.688V3.872C31.0333 3.76533 30.9266 3.68 30.7133 3.616C30.5213 3.552 30.2546 3.49867 29.9132 3.456C29.5933 3.392 29.2626 3.36 28.9213 3.36H28.5053V1.28H35.8973V3.36H35.5773C35.2146 3.36 34.8839 3.40267 34.5853 3.488C34.3079 3.552 34.0839 3.66933 33.9133 3.84C33.7426 4.01067 33.6573 4.26667 33.6573 4.608V24H27.8973L17.2733 2.528L18.1373 2.752V21.44C18.1373 21.504 18.2439 21.5787 18.4573 21.664C18.6706 21.728 18.9373 21.792 19.2573 21.856C19.5773 21.8987 19.9079 21.92 20.2493 21.92H20.6973V24H13.2733ZM58.9915 15.744V20.672C58.6715 21.0773 58.2022 21.504 57.5835 21.952C56.9862 22.3787 56.2715 22.7733 55.4395 23.136C54.6288 23.4773 53.7222 23.7653 52.7195 24C51.7382 24.2133 50.7035 24.32 49.6155 24.32C47.8448 24.32 46.2342 24.0427 44.7835 23.488C43.3542 22.9333 42.1168 22.144 41.0715 21.12C40.0262 20.096 39.2155 18.8693 38.6395 17.44C38.0848 16.0107 37.8075 14.4107 37.8075 12.64C37.8075 10.9333 38.0955 9.36533 38.6715 7.936C39.2688 6.50667 40.0902 5.26933 41.1355 4.224C42.1808 3.17867 43.3968 2.37867 44.7835 1.824C46.1915 1.248 47.7062 0.959999 49.3275 0.959999C50.8635 0.959999 52.1435 1.216 53.1675 1.728C54.1915 2.24 55.0128 2.944 55.6315 3.84C56.2715 4.736 56.7728 5.76 57.1355 6.912L55.4395 6.592L56.0475 1.28H58.5755V8.416H55.6635C55.3648 7.456 54.9702 6.61333 54.4795 5.888C53.9888 5.14133 53.3808 4.56533 52.6555 4.16C51.9515 3.75467 51.0875 3.552 50.0635 3.552C49.1675 3.552 48.3568 3.76533 47.6315 4.192C46.9275 4.61867 46.3195 5.22667 45.8075 6.016C45.3168 6.80533 44.9328 7.76533 44.6555 8.896C44.3995 10.0053 44.2715 11.2533 44.2715 12.64C44.2715 14.1333 44.3995 15.456 44.6555 16.608C44.9115 17.7387 45.2848 18.688 45.7755 19.456C46.2875 20.2027 46.8955 20.768 47.5995 21.152C48.3035 21.536 49.0822 21.728 49.9355 21.728C50.5755 21.728 51.1195 21.6533 51.5675 21.504C52.0155 21.3547 52.3888 21.184 52.6875 20.992C52.9862 20.7787 53.2208 20.5867 53.3915 20.416V15.744C53.3915 15.2747 53.2102 14.9653 52.8475 14.816C52.5062 14.6667 52.0475 14.592 51.4715 14.592H51.1515V12.512H60.7835V14.592H60.5915C60.1435 14.592 59.7595 14.6667 59.4395 14.816C59.1408 14.9653 58.9915 15.2747 58.9915 15.744ZM66.5613 14.272H75.3613L75.3933 16.64H66.4653L66.5613 14.272ZM70.2093 3.36L71.2653 4.768L65.8253 21.344C65.8253 21.4507 65.9213 21.5573 66.1133 21.664C66.3053 21.7493 66.5506 21.8133 66.8493 21.856C67.1479 21.8987 67.4573 21.92 67.7773 21.92H68.2253V24H61.5693V21.92H61.7293C62.1773 21.92 62.5293 21.8347 62.7853 21.664C63.0626 21.472 63.2866 21.0987 63.4573 20.544L69.8253 1.28H75.7453L82.3053 21.024C82.4333 21.3867 82.6359 21.632 82.9133 21.76C83.1906 21.8667 83.5426 21.92 83.9693 21.92H84.0973V24H73.6653V21.92H74.1773C74.4759 21.92 74.7746 21.9093 75.0733 21.888C75.3933 21.8667 75.6493 21.8347 75.8413 21.792C76.0333 21.728 76.1293 21.664 76.1293 21.6L70.2093 3.36Z" fill="#4338CA"/>
</svg>
